<svg width="50" height="50" viewBox="0 0 50 50" fill="none" xmlns="http://www.w3.org/2000/svg">
<path d="M33.9764 12.1676L34.0326 12.1799H9.94303L17.5159 4.56535C17.8867 4.19359 18.0901 3.68999 18.0901 3.16142C18.0901 2.63285 17.8867 2.13277 17.5159 1.76013L16.3376 0.577313C15.967 0.205554 15.4733 -1.56825e-08 14.9467 -1.56825e-08C14.4199 -1.56825e-08 13.9259 0.204086 13.5553 0.575845L0.573959 13.5989C0.201959 13.9721 -0.00145557 14.4692 7.84137e-06 14.9981C-0.00145557 15.5299 0.201959 16.0273 0.573959 16.4L13.5553 29.4242C13.9259 29.7956 14.4196 30 14.9467 30C15.4733 30 15.967 29.7953 16.3376 29.4242L17.5159 28.2413C17.8867 27.8702 18.0901 27.3745 18.0901 26.8459C18.0901 26.3176 17.8867 25.8481 17.5159 25.4766L9.85757 17.8195H34.0033C35.0883 17.8195 36 16.8813 36 15.7933V14.1204C36 13.0324 35.0614 12.1676 33.9764 12.1676Z" transform="translate(7 10)" fill="#7BE6BB"/>
</svg>
